<svg width="456" height="401" viewBox="0 0 456 401" fill="none" xmlns="http://www.w3.org/2000/svg">
<g clip-path="url(#clip0)">
<path d="M413.739 195.973C413.739 229.288 434.807 273.266 419.309 300.211C404.162 326.548 355.134 374.883 329.393 390.923C301.222 408.478 265.566 398.085 229.929 398.085C194.291 398.085 161.023 369.641 132.852 352.086C104.955 334.702 63.7552 347.786 48.5057 318.513C35.2885 293.141 31 258.389 31 227.801C31 201.475 48.5057 192.79 48.5057 167.327C58.5633 144.486 43.6679 52.0793 61.6226 35.2381C94.4973 4.40248 197.214 5.00084 245.843 5.00084C270.942 5.00084 278.952 17.1927 300.748 26.3006C331.976 39.3501 347.901 94.1898 367.588 121.175C389.735 151.534 413.739 155.517 413.739 195.973Z" fill="#9B9999"/>
<path fill-rule="evenodd" clip-rule="evenodd" d="M226.868 28.5799C226.868 42.8626 215.243 54.4409 200.902 54.4409C186.562 54.4409 174.937 42.8626 174.937 28.5799C174.937 23.7569 176.262 19.2423 178.571 15.3777C134.875 17.6931 87.6952 24.2855 67.6285 43.0318C57.808 52.2061 58.2272 84.8398 58.6178 115.256C58.9126 138.211 59.1912 159.903 55.0395 169.294C55.0395 179.015 52.3594 186.178 49.14 192.879C49.3233 192.875 49.507 192.873 49.6912 192.873C64.0316 192.873 75.6568 204.452 75.6568 218.734C75.6568 233.017 64.0316 244.595 49.6912 244.595C45.7268 244.595 41.9698 243.711 38.6086 242.128C39.8649 267.259 44.4874 293.637 55.0395 313.812C63.6359 330.247 80.8244 332.714 98.9714 335.319C111.721 337.149 124.943 339.047 135.991 345.904C141.36 349.236 146.922 352.979 152.657 356.838C175.799 372.411 201.75 389.873 229.161 389.873C238.58 389.873 247.999 390.627 257.27 391.368C281.666 393.319 305.031 395.188 324.623 383.028C333.453 377.547 345.139 368.123 357.175 357.125C350.424 352.455 346.004 344.676 346.004 335.87C346.004 321.587 357.629 310.009 371.97 310.009C380.552 310.009 388.162 314.156 392.889 320.547C400.576 311.609 406.957 303.182 410.921 296.317C420.389 279.921 415.636 256.927 410.931 234.164C408.245 221.169 405.575 208.25 405.575 196.676C405.575 184.039 403.115 175.125 399.06 167.838C396.457 169.252 393.472 170.055 390.298 170.055C380.176 170.055 371.97 161.882 371.97 151.8C371.97 147.894 373.201 144.274 375.299 141.306C370.716 136.723 365.955 131.561 361.28 125.178C355.061 116.687 349.232 105.31 343.142 93.4232L343.142 93.4228L343.142 93.4223C330.731 69.1989 317.235 42.8561 297.13 34.4885C290.123 31.5722 284.6 28.3251 279.449 25.296C269.221 19.2824 260.455 14.1282 244.435 14.1282C243.58 14.1282 242.708 14.128 241.818 14.1279C236.013 14.1266 229.496 14.1251 222.471 14.176C225.248 18.2925 226.868 23.2478 226.868 28.5799ZM138.28 113.769C152.62 113.769 164.245 102.19 164.245 87.9077C164.245 73.6251 152.62 62.0467 138.28 62.0467C123.939 62.0467 112.314 73.6251 112.314 87.9077C112.314 102.19 123.939 113.769 138.28 113.769ZM123.006 284.147C123.006 294.229 114.8 302.402 104.677 302.402C94.5549 302.402 86.3488 294.229 86.3488 284.147C86.3488 274.065 94.5549 265.893 104.677 265.893C114.8 265.893 123.006 274.065 123.006 284.147ZM371.97 271.978C382.093 271.978 390.298 263.805 390.298 253.723C390.298 243.641 382.093 235.468 371.97 235.468C361.847 235.468 353.641 243.641 353.641 253.723C353.641 263.805 361.847 271.978 371.97 271.978ZM145.917 183.746C156.039 183.746 164.245 175.573 164.245 165.491C164.245 155.409 156.039 147.236 145.917 147.236C135.794 147.236 127.588 155.409 127.588 165.491C127.588 175.573 135.794 183.746 145.917 183.746ZM309.347 113.769C309.347 128.052 297.722 139.63 283.381 139.63C269.041 139.63 257.416 128.052 257.416 113.769C257.416 99.4865 269.041 87.9081 283.381 87.9081C297.722 87.9081 309.347 99.4865 309.347 113.769ZM237.56 346.518C237.56 360.801 225.935 372.379 211.594 372.379C197.254 372.379 185.629 360.801 185.629 346.518C185.629 332.235 197.254 320.657 211.594 320.657C225.935 320.657 237.56 332.235 237.56 346.518ZM148.972 268.935C163.312 268.935 174.937 257.357 174.937 243.074C174.937 228.791 163.312 217.213 148.972 217.213C134.631 217.213 123.006 228.791 123.006 243.074C123.006 257.357 134.631 268.935 148.972 268.935Z" fill="#CECECE"/>
<ellipse cx="232" cy="187.639" rx="33" ry="32.5" fill="#9B9999"/>
<ellipse cx="289.5" cy="354.139" rx="20.5" ry="20" fill="#9B9999"/>
<circle cx="287.5" cy="269.639" r="22.5" fill="#9B9999"/>
</g>
<defs>
<clipPath id="clip0">
<rect width="456" height="401" fill="white"/>
</clipPath>
</defs>
</svg>
