<svg width="1920" height="1796" viewBox="0 0 1920 1796" fill="none" xmlns="http://www.w3.org/2000/svg">
<rect x="1346" y="91" width="5" height="5" fill="white"/>
<rect x="36" y="1200" width="5" height="5" fill="white"/>
<rect x="973" y="424" width="5" height="5" fill="white"/>
<rect x="813" y="97" width="5" height="5" fill="white"/>
<rect x="698" y="676" width="5" height="5" fill="white"/>
<rect x="1528" y="1570" width="5" height="5" fill="white"/>
<rect x="1203" y="1184" width="5" height="5" fill="white" fill-opacity="0.5"/>
<rect y="614" width="5" height="5" fill="white"/>
<rect x="466" y="564" width="5" height="5" fill="white" fill-opacity="0.5"/>
<rect x="1119" y="236" width="5" height="5" fill="white" fill-opacity="0.5"/>
<rect x="86" y="180" width="5" height="5" fill="white" fill-opacity="0.5"/>
<rect x="956" y="794" width="5" height="5" fill="white" fill-opacity="0.5"/>
<rect x="1012" y="1753" width="5" height="5" fill="white" fill-opacity="0.5"/>
<rect x="1282" y="619" width="5" height="5" fill="white"/>
<rect x="1720" y="715" width="5" height="5" fill="white"/>
<rect x="1596" y="474" width="5" height="5" fill="white" fill-opacity="0.5"/>
<rect x="1833" y="63" width="5" height="5" fill="white" fill-opacity="0.5"/>
<rect x="638" y="1077" width="5" height="5" fill="white"/>
<rect x="813" y="1411" width="5" height="5" fill="white"/>
<rect x="1334" y="810" width="5" height="5" fill="white" fill-opacity="0.75"/>
<rect x="1334" y="805" width="5" height="5" fill="white" fill-opacity="0.5"/>
<rect x="1339" y="810" width="5" height="5" fill="white" fill-opacity="0.5"/>
<rect x="1334" y="815" width="5" height="5" fill="white" fill-opacity="0.5"/>
<rect x="1329" y="810" width="5" height="5" fill="white" fill-opacity="0.5"/>
<rect x="1324" y="810" width="5" height="5" fill="white" fill-opacity="0.25"/>
<rect x="1334" y="800" width="5" height="5" fill="white" fill-opacity="0.25"/>
<rect x="1344" y="810" width="5" height="5" fill="white" fill-opacity="0.25"/>
<rect x="1334" y="820" width="5" height="5" fill="white" fill-opacity="0.25"/>
<circle cx="1336.5" cy="813.5" r="14.5" fill="url(#paint0_radial)" fill-opacity="0.1"/>
<rect x="921" y="1118" width="5" height="5" fill="white" fill-opacity="0.75"/>
<rect x="921" y="1113" width="5" height="5" fill="white" fill-opacity="0.5"/>
<rect x="926" y="1118" width="5" height="5" fill="white" fill-opacity="0.5"/>
<rect x="921" y="1123" width="5" height="5" fill="white" fill-opacity="0.5"/>
<rect x="916" y="1118" width="5" height="5" fill="white" fill-opacity="0.5"/>
<rect x="911" y="1118" width="5" height="5" fill="white" fill-opacity="0.25"/>
<rect x="921" y="1108" width="5" height="5" fill="white" fill-opacity="0.25"/>
<rect x="931" y="1118" width="5" height="5" fill="white" fill-opacity="0.25"/>
<rect x="921" y="1128" width="5" height="5" fill="white" fill-opacity="0.25"/>
<circle cx="923.5" cy="1121.5" r="14.5" fill="url(#paint1_radial)" fill-opacity="0.1"/>
<rect x="50" y="1755" width="5" height="5" fill="white" fill-opacity="0.75"/>
<rect x="50" y="1750" width="5" height="5" fill="white" fill-opacity="0.5"/>
<rect x="55" y="1755" width="5" height="5" fill="white" fill-opacity="0.5"/>
<rect x="50" y="1760" width="5" height="5" fill="white" fill-opacity="0.5"/>
<rect x="45" y="1755" width="5" height="5" fill="white" fill-opacity="0.5"/>
<rect x="40" y="1755" width="5" height="5" fill="white" fill-opacity="0.25"/>
<rect x="50" y="1745" width="5" height="5" fill="white" fill-opacity="0.25"/>
<rect x="60" y="1755" width="5" height="5" fill="white" fill-opacity="0.25"/>
<rect x="50" y="1765" width="5" height="5" fill="white" fill-opacity="0.25"/>
<circle cx="52.5" cy="1758.5" r="14.5" fill="url(#paint2_radial)" fill-opacity="0.1"/>
<rect x="340" y="1633" width="5" height="5" fill="white" fill-opacity="0.75"/>
<rect x="340" y="1628" width="5" height="5" fill="white" fill-opacity="0.5"/>
<rect x="345" y="1633" width="5" height="5" fill="white" fill-opacity="0.5"/>
<rect x="340" y="1638" width="5" height="5" fill="white" fill-opacity="0.5"/>
<rect x="335" y="1633" width="5" height="5" fill="white" fill-opacity="0.5"/>
<rect x="330" y="1633" width="5" height="5" fill="white" fill-opacity="0.25"/>
<rect x="340" y="1623" width="5" height="5" fill="white" fill-opacity="0.25"/>
<rect x="350" y="1633" width="5" height="5" fill="white" fill-opacity="0.25"/>
<rect x="340" y="1643" width="5" height="5" fill="white" fill-opacity="0.25"/>
<circle cx="342.5" cy="1636.5" r="14.5" fill="url(#paint3_radial)" fill-opacity="0.1"/>
<rect x="570" y="305" width="5" height="5" fill="white" fill-opacity="0.75"/>
<rect x="570" y="300" width="5" height="5" fill="white" fill-opacity="0.5"/>
<rect x="575" y="305" width="5" height="5" fill="white" fill-opacity="0.5"/>
<rect x="570" y="310" width="5" height="5" fill="white" fill-opacity="0.5"/>
<rect x="565" y="305" width="5" height="5" fill="white" fill-opacity="0.5"/>
<rect x="560" y="305" width="5" height="5" fill="white" fill-opacity="0.25"/>
<rect x="570" y="295" width="5" height="5" fill="white" fill-opacity="0.25"/>
<rect x="580" y="305" width="5" height="5" fill="white" fill-opacity="0.25"/>
<rect x="570" y="315" width="5" height="5" fill="white" fill-opacity="0.25"/>
<circle cx="572.5" cy="308.5" r="14.5" fill="url(#paint4_radial)" fill-opacity="0.1"/>
<rect x="1102" y="582" width="5" height="5" fill="white"/>
<rect x="1102" y="577" width="5" height="5" fill="white" fill-opacity="0.75"/>
<rect x="1107" y="582" width="5" height="5" fill="white" fill-opacity="0.75"/>
<rect x="1102" y="587" width="5" height="5" fill="white" fill-opacity="0.75"/>
<rect x="1097" y="582" width="5" height="5" fill="white" fill-opacity="0.75"/>
<rect x="1092" y="582" width="5" height="5" fill="white" fill-opacity="0.5"/>
<rect x="1102" y="572" width="5" height="5" fill="white" fill-opacity="0.5"/>
<rect x="1112" y="582" width="5" height="5" fill="white" fill-opacity="0.5"/>
<rect x="1102" y="592" width="5" height="5" fill="white" fill-opacity="0.5"/>
<circle cx="1104.5" cy="585.5" r="14.5" fill="url(#paint5_radial)" fill-opacity="0.25"/>
<rect x="1255" y="1554" width="5" height="5" fill="white"/>
<rect x="1255" y="1549" width="5" height="5" fill="white" fill-opacity="0.75"/>
<rect x="1260" y="1554" width="5" height="5" fill="white" fill-opacity="0.75"/>
<rect x="1255" y="1559" width="5" height="5" fill="white" fill-opacity="0.75"/>
<rect x="1250" y="1554" width="5" height="5" fill="white" fill-opacity="0.75"/>
<rect x="1245" y="1554" width="5" height="5" fill="white" fill-opacity="0.5"/>
<rect x="1255" y="1544" width="5" height="5" fill="white" fill-opacity="0.5"/>
<rect x="1265" y="1554" width="5" height="5" fill="white" fill-opacity="0.5"/>
<rect x="1255" y="1564" width="5" height="5" fill="white" fill-opacity="0.5"/>
<circle cx="1257.5" cy="1557.5" r="14.5" fill="url(#paint6_radial)" fill-opacity="0.25"/>
<rect x="1837" y="423" width="5" height="5" fill="white"/>
<rect x="1837" y="418" width="5" height="5" fill="white" fill-opacity="0.75"/>
<rect x="1842" y="423" width="5" height="5" fill="white" fill-opacity="0.75"/>
<rect x="1837" y="428" width="5" height="5" fill="white" fill-opacity="0.75"/>
<rect x="1832" y="423" width="5" height="5" fill="white" fill-opacity="0.75"/>
<rect x="1827" y="423" width="5" height="5" fill="white" fill-opacity="0.5"/>
<rect x="1837" y="413" width="5" height="5" fill="white" fill-opacity="0.5"/>
<rect x="1847" y="423" width="5" height="5" fill="white" fill-opacity="0.5"/>
<rect x="1837" y="433" width="5" height="5" fill="white" fill-opacity="0.5"/>
<circle cx="1839.5" cy="426.5" r="14.5" fill="url(#paint7_radial)" fill-opacity="0.25"/>
<rect x="1818" y="1249" width="5" height="5" fill="white"/>
<rect x="1818" y="1244" width="5" height="5" fill="white" fill-opacity="0.75"/>
<rect x="1823" y="1249" width="5" height="5" fill="white" fill-opacity="0.75"/>
<rect x="1818" y="1254" width="5" height="5" fill="white" fill-opacity="0.75"/>
<rect x="1813" y="1249" width="5" height="5" fill="white" fill-opacity="0.75"/>
<rect x="1808" y="1249" width="5" height="5" fill="white" fill-opacity="0.5"/>
<rect x="1818" y="1239" width="5" height="5" fill="white" fill-opacity="0.5"/>
<rect x="1828" y="1249" width="5" height="5" fill="white" fill-opacity="0.5"/>
<rect x="1818" y="1259" width="5" height="5" fill="white" fill-opacity="0.5"/>
<circle cx="1820.5" cy="1252.5" r="14.5" fill="url(#paint8_radial)" fill-opacity="0.25"/>
<rect x="1332" y="284" width="5" height="5" fill="white"/>
<rect x="1332" y="279" width="5" height="5" fill="white" fill-opacity="0.75"/>
<rect x="1337" y="284" width="5" height="5" fill="white" fill-opacity="0.75"/>
<rect x="1332" y="289" width="5" height="5" fill="white" fill-opacity="0.75"/>
<rect x="1327" y="284" width="5" height="5" fill="white" fill-opacity="0.75"/>
<rect x="1322" y="284" width="5" height="5" fill="white" fill-opacity="0.5"/>
<rect x="1332" y="274" width="5" height="5" fill="white" fill-opacity="0.5"/>
<rect x="1342" y="284" width="5" height="5" fill="white" fill-opacity="0.5"/>
<rect x="1332" y="294" width="5" height="5" fill="white" fill-opacity="0.5"/>
<circle cx="1334.5" cy="287.5" r="14.5" fill="url(#paint9_radial)" fill-opacity="0.25"/>
<rect x="266.345" y="752.483" width="4.31034" height="4.31034" fill="white"/>
<rect x="266.345" y="748.172" width="4.31034" height="4.31034" fill="white" fill-opacity="0.75"/>
<rect x="270.655" y="752.483" width="4.31034" height="4.31034" fill="white" fill-opacity="0.75"/>
<rect x="266.345" y="756.793" width="4.31034" height="4.31034" fill="white" fill-opacity="0.75"/>
<rect x="262.035" y="752.483" width="4.31034" height="4.31034" fill="white" fill-opacity="0.75"/>
<rect x="257.724" y="752.483" width="4.31034" height="4.31034" fill="white" fill-opacity="0.5"/>
<rect x="266.345" y="743.862" width="4.31034" height="4.31034" fill="white" fill-opacity="0.5"/>
<rect x="274.965" y="752.483" width="4.31034" height="4.31034" fill="white" fill-opacity="0.5"/>
<rect x="266.345" y="761.104" width="4.31034" height="4.31034" fill="white" fill-opacity="0.5"/>
<circle cx="268.5" cy="755.5" r="12.5" fill="url(#paint10_radial)" fill-opacity="0.25"/>
<rect x="293" y="79" width="5" height="5" fill="white"/>
<rect x="293" y="74" width="5" height="5" fill="white" fill-opacity="0.75"/>
<rect x="298" y="79" width="5" height="5" fill="white" fill-opacity="0.75"/>
<rect x="293" y="84" width="5" height="5" fill="white" fill-opacity="0.75"/>
<rect x="288" y="79" width="5" height="5" fill="white" fill-opacity="0.75"/>
<rect x="283" y="79" width="5" height="5" fill="white" fill-opacity="0.5"/>
<rect x="293" y="69" width="5" height="5" fill="white" fill-opacity="0.5"/>
<rect x="303" y="79" width="5" height="5" fill="white" fill-opacity="0.5"/>
<rect x="293" y="89" width="5" height="5" fill="white" fill-opacity="0.5"/>
<circle cx="295.5" cy="82.5" r="14.5" fill="url(#paint11_radial)" fill-opacity="0.25"/>
<rect x="1638.38" y="178.931" width="2.24138" height="2.24138" fill="white"/>
<rect x="1638.38" y="176.689" width="2.24138" height="2.24138" fill="white" fill-opacity="0.75"/>
<rect x="1640.62" y="178.931" width="2.24138" height="2.24138" fill="white" fill-opacity="0.75"/>
<rect x="1638.38" y="181.173" width="2.24138" height="2.24138" fill="white" fill-opacity="0.75"/>
<rect x="1636.14" y="178.931" width="2.24138" height="2.24138" fill="white" fill-opacity="0.75"/>
<rect x="1633.9" y="178.931" width="2.24138" height="2.24138" fill="white" fill-opacity="0.5"/>
<rect x="1638.38" y="174.448" width="2.24138" height="2.24138" fill="white" fill-opacity="0.5"/>
<rect x="1642.86" y="178.931" width="2.24138" height="2.24138" fill="white" fill-opacity="0.5"/>
<rect x="1638.38" y="183.414" width="2.24138" height="2.24138" fill="white" fill-opacity="0.5"/>
<circle cx="1639.5" cy="180.5" r="6.5" fill="url(#paint12_radial)" fill-opacity="0.25"/>
<rect x="1418.21" y="395.69" width="2.58621" height="2.58621" fill="white"/>
<rect x="1418.21" y="393.104" width="2.58621" height="2.58621" fill="white" fill-opacity="0.75"/>
<rect x="1420.79" y="395.69" width="2.58621" height="2.58621" fill="white" fill-opacity="0.75"/>
<rect x="1418.21" y="398.276" width="2.58621" height="2.58621" fill="white" fill-opacity="0.75"/>
<rect x="1415.62" y="395.69" width="2.58621" height="2.58621" fill="white" fill-opacity="0.75"/>
<rect x="1413.03" y="395.69" width="2.58621" height="2.58621" fill="white" fill-opacity="0.5"/>
<rect x="1418.21" y="390.517" width="2.58621" height="2.58621" fill="white" fill-opacity="0.5"/>
<rect x="1423.38" y="395.69" width="2.58621" height="2.58621" fill="white" fill-opacity="0.5"/>
<rect x="1418.21" y="400.862" width="2.58621" height="2.58621" fill="white" fill-opacity="0.5"/>
<circle cx="1419.5" cy="397.5" r="7.5" fill="url(#paint13_radial)" fill-opacity="0.25"/>
<rect x="1873.21" y="903.69" width="2.58621" height="2.58621" fill="white"/>
<rect x="1873.21" y="901.103" width="2.58621" height="2.58621" fill="white" fill-opacity="0.75"/>
<rect x="1875.79" y="903.69" width="2.58621" height="2.58621" fill="white" fill-opacity="0.75"/>
<rect x="1873.21" y="906.276" width="2.58621" height="2.58621" fill="white" fill-opacity="0.75"/>
<rect x="1870.62" y="903.69" width="2.58621" height="2.58621" fill="white" fill-opacity="0.75"/>
<rect x="1868.03" y="903.69" width="2.58621" height="2.58621" fill="white" fill-opacity="0.5"/>
<rect x="1873.21" y="898.517" width="2.58621" height="2.58621" fill="white" fill-opacity="0.5"/>
<rect x="1878.38" y="903.69" width="2.58621" height="2.58621" fill="white" fill-opacity="0.5"/>
<rect x="1873.21" y="908.862" width="2.58621" height="2.58621" fill="white" fill-opacity="0.5"/>
<circle cx="1874.5" cy="905.5" r="7.5" fill="url(#paint14_radial)" fill-opacity="0.25"/>
<rect x="1587.21" y="1010.69" width="2.58621" height="2.58621" fill="white"/>
<rect x="1587.21" y="1008.1" width="2.58621" height="2.58621" fill="white" fill-opacity="0.75"/>
<rect x="1589.79" y="1010.69" width="2.58621" height="2.58621" fill="white" fill-opacity="0.75"/>
<rect x="1587.21" y="1013.28" width="2.58621" height="2.58621" fill="white" fill-opacity="0.75"/>
<rect x="1584.62" y="1010.69" width="2.58621" height="2.58621" fill="white" fill-opacity="0.75"/>
<rect x="1582.03" y="1010.69" width="2.58621" height="2.58621" fill="white" fill-opacity="0.5"/>
<rect x="1587.21" y="1005.52" width="2.58621" height="2.58621" fill="white" fill-opacity="0.5"/>
<rect x="1592.38" y="1010.69" width="2.58621" height="2.58621" fill="white" fill-opacity="0.5"/>
<rect x="1587.21" y="1015.86" width="2.58621" height="2.58621" fill="white" fill-opacity="0.5"/>
<circle cx="1588.5" cy="1012.5" r="7.5" fill="url(#paint15_radial)" fill-opacity="0.25"/>
<rect x="1535.21" y="1311.69" width="2.58621" height="2.58621" fill="white"/>
<rect x="1535.21" y="1309.1" width="2.58621" height="2.58621" fill="white" fill-opacity="0.75"/>
<rect x="1537.79" y="1311.69" width="2.58621" height="2.58621" fill="white" fill-opacity="0.75"/>
<rect x="1535.21" y="1314.28" width="2.58621" height="2.58621" fill="white" fill-opacity="0.75"/>
<rect x="1532.62" y="1311.69" width="2.58621" height="2.58621" fill="white" fill-opacity="0.75"/>
<rect x="1530.03" y="1311.69" width="2.58621" height="2.58621" fill="white" fill-opacity="0.5"/>
<rect x="1535.21" y="1306.52" width="2.58621" height="2.58621" fill="white" fill-opacity="0.5"/>
<rect x="1540.38" y="1311.69" width="2.58621" height="2.58621" fill="white" fill-opacity="0.5"/>
<rect x="1535.21" y="1316.86" width="2.58621" height="2.58621" fill="white" fill-opacity="0.5"/>
<circle cx="1536.5" cy="1313.5" r="7.5" fill="url(#paint16_radial)" fill-opacity="0.25"/>
<rect x="1642.21" y="1786.69" width="2.58621" height="2.58621" fill="white"/>
<rect x="1642.21" y="1784.1" width="2.58621" height="2.58621" fill="white" fill-opacity="0.75"/>
<rect x="1644.79" y="1786.69" width="2.58621" height="2.58621" fill="white" fill-opacity="0.75"/>
<rect x="1642.21" y="1789.28" width="2.58621" height="2.58621" fill="white" fill-opacity="0.75"/>
<rect x="1639.62" y="1786.69" width="2.58621" height="2.58621" fill="white" fill-opacity="0.75"/>
<rect x="1637.03" y="1786.69" width="2.58621" height="2.58621" fill="white" fill-opacity="0.5"/>
<rect x="1642.21" y="1781.52" width="2.58621" height="2.58621" fill="white" fill-opacity="0.5"/>
<rect x="1647.38" y="1786.69" width="2.58621" height="2.58621" fill="white" fill-opacity="0.5"/>
<rect x="1642.21" y="1791.86" width="2.58621" height="2.58621" fill="white" fill-opacity="0.5"/>
<circle cx="1643.5" cy="1788.5" r="7.5" fill="url(#paint17_radial)" fill-opacity="0.25"/>
<rect x="213.207" y="1377.69" width="2.58621" height="2.58621" fill="white"/>
<rect x="213.207" y="1375.1" width="2.58621" height="2.58621" fill="white" fill-opacity="0.75"/>
<rect x="215.793" y="1377.69" width="2.58621" height="2.58621" fill="white" fill-opacity="0.75"/>
<rect x="213.207" y="1380.28" width="2.58621" height="2.58621" fill="white" fill-opacity="0.75"/>
<rect x="210.621" y="1377.69" width="2.58621" height="2.58621" fill="white" fill-opacity="0.75"/>
<rect x="208.035" y="1377.69" width="2.58621" height="2.58621" fill="white" fill-opacity="0.5"/>
<rect x="213.207" y="1372.52" width="2.58621" height="2.58621" fill="white" fill-opacity="0.5"/>
<rect x="218.379" y="1377.69" width="2.58621" height="2.58621" fill="white" fill-opacity="0.5"/>
<rect x="213.207" y="1382.86" width="2.58621" height="2.58621" fill="white" fill-opacity="0.5"/>
<circle cx="214.5" cy="1379.5" r="7.5" fill="url(#paint18_radial)" fill-opacity="0.25"/>
<defs>
<radialGradient id="paint0_radial" cx="0" cy="0" r="1" gradientUnits="userSpaceOnUse" gradientTransform="translate(1336.5 813.5) rotate(90) scale(14.5)">
<stop stop-color="white"/>
<stop offset="1" stop-color="white" stop-opacity="0"/>
</radialGradient>
<radialGradient id="paint1_radial" cx="0" cy="0" r="1" gradientUnits="userSpaceOnUse" gradientTransform="translate(923.5 1121.5) rotate(90) scale(14.5)">
<stop stop-color="white"/>
<stop offset="1" stop-color="white" stop-opacity="0"/>
</radialGradient>
<radialGradient id="paint2_radial" cx="0" cy="0" r="1" gradientUnits="userSpaceOnUse" gradientTransform="translate(52.5 1758.5) rotate(90) scale(14.5)">
<stop stop-color="white"/>
<stop offset="1" stop-color="white" stop-opacity="0"/>
</radialGradient>
<radialGradient id="paint3_radial" cx="0" cy="0" r="1" gradientUnits="userSpaceOnUse" gradientTransform="translate(342.5 1636.5) rotate(90) scale(14.5)">
<stop stop-color="white"/>
<stop offset="1" stop-color="white" stop-opacity="0"/>
</radialGradient>
<radialGradient id="paint4_radial" cx="0" cy="0" r="1" gradientUnits="userSpaceOnUse" gradientTransform="translate(572.5 308.5) rotate(90) scale(14.5)">
<stop stop-color="white"/>
<stop offset="1" stop-color="white" stop-opacity="0"/>
</radialGradient>
<radialGradient id="paint5_radial" cx="0" cy="0" r="1" gradientUnits="userSpaceOnUse" gradientTransform="translate(1104.5 585.5) rotate(90) scale(14.5)">
<stop stop-color="white"/>
<stop offset="1" stop-color="white" stop-opacity="0"/>
</radialGradient>
<radialGradient id="paint6_radial" cx="0" cy="0" r="1" gradientUnits="userSpaceOnUse" gradientTransform="translate(1257.5 1557.5) rotate(90) scale(14.5)">
<stop stop-color="white"/>
<stop offset="1" stop-color="white" stop-opacity="0"/>
</radialGradient>
<radialGradient id="paint7_radial" cx="0" cy="0" r="1" gradientUnits="userSpaceOnUse" gradientTransform="translate(1839.5 426.5) rotate(90) scale(14.5)">
<stop stop-color="white"/>
<stop offset="1" stop-color="white" stop-opacity="0"/>
</radialGradient>
<radialGradient id="paint8_radial" cx="0" cy="0" r="1" gradientUnits="userSpaceOnUse" gradientTransform="translate(1820.5 1252.5) rotate(90) scale(14.5)">
<stop stop-color="white"/>
<stop offset="1" stop-color="white" stop-opacity="0"/>
</radialGradient>
<radialGradient id="paint9_radial" cx="0" cy="0" r="1" gradientUnits="userSpaceOnUse" gradientTransform="translate(1334.5 287.5) rotate(90) scale(14.5)">
<stop stop-color="white"/>
<stop offset="1" stop-color="white" stop-opacity="0"/>
</radialGradient>
<radialGradient id="paint10_radial" cx="0" cy="0" r="1" gradientUnits="userSpaceOnUse" gradientTransform="translate(268.5 755.5) rotate(90) scale(12.5)">
<stop stop-color="white"/>
<stop offset="1" stop-color="white" stop-opacity="0"/>
</radialGradient>
<radialGradient id="paint11_radial" cx="0" cy="0" r="1" gradientUnits="userSpaceOnUse" gradientTransform="translate(295.5 82.5) rotate(90) scale(14.5)">
<stop stop-color="white"/>
<stop offset="1" stop-color="white" stop-opacity="0"/>
</radialGradient>
<radialGradient id="paint12_radial" cx="0" cy="0" r="1" gradientUnits="userSpaceOnUse" gradientTransform="translate(1639.5 180.5) rotate(90) scale(6.5)">
<stop stop-color="white"/>
<stop offset="1" stop-color="white" stop-opacity="0"/>
</radialGradient>
<radialGradient id="paint13_radial" cx="0" cy="0" r="1" gradientUnits="userSpaceOnUse" gradientTransform="translate(1419.5 397.5) rotate(90) scale(7.5)">
<stop stop-color="white"/>
<stop offset="1" stop-color="white" stop-opacity="0"/>
</radialGradient>
<radialGradient id="paint14_radial" cx="0" cy="0" r="1" gradientUnits="userSpaceOnUse" gradientTransform="translate(1874.5 905.5) rotate(90) scale(7.5)">
<stop stop-color="white"/>
<stop offset="1" stop-color="white" stop-opacity="0"/>
</radialGradient>
<radialGradient id="paint15_radial" cx="0" cy="0" r="1" gradientUnits="userSpaceOnUse" gradientTransform="translate(1588.5 1012.5) rotate(90) scale(7.5)">
<stop stop-color="white"/>
<stop offset="1" stop-color="white" stop-opacity="0"/>
</radialGradient>
<radialGradient id="paint16_radial" cx="0" cy="0" r="1" gradientUnits="userSpaceOnUse" gradientTransform="translate(1536.5 1313.5) rotate(90) scale(7.5)">
<stop stop-color="white"/>
<stop offset="1" stop-color="white" stop-opacity="0"/>
</radialGradient>
<radialGradient id="paint17_radial" cx="0" cy="0" r="1" gradientUnits="userSpaceOnUse" gradientTransform="translate(1643.5 1788.5) rotate(90) scale(7.5)">
<stop stop-color="white"/>
<stop offset="1" stop-color="white" stop-opacity="0"/>
</radialGradient>
<radialGradient id="paint18_radial" cx="0" cy="0" r="1" gradientUnits="userSpaceOnUse" gradientTransform="translate(214.5 1379.5) rotate(90) scale(7.5)">
<stop stop-color="white"/>
<stop offset="1" stop-color="white" stop-opacity="0"/>
</radialGradient>
</defs>
</svg>
